Coordinates
version=1
nRows=21
nColumns=19
inDegrees=yes

Units are S.I. units (second, meters, Newtons, ...)
Angles are in degrees.

endheader
time	pelvis_tilt	pelvis_list	pelvis_rotation	pelvis_tx	pelvis_ty	pelvis_tz	hip_flexion_r	hip_adduction_r	hip_rotation_r	knee_angle_r	ankle_angle_r	subtalar_angle_r	hip_flexion_l	hip_adduction_l	hip_rotation_l	knee_angle_l	ankle_angle_l	subtalar_angle_l
      1.88300000	      5.63025507	      2.50768211	      3.87162717	      0.58828601	      1.00743676	     -0.00319517	     17.62106302	     -4.72679756	     -2.98068616	     -4.54714412	     -1.57662104	     -0.27841077	    -21.75310728	      1.04412112	     -6.78499832	    -11.47312778	     17.39955191	     26.01738749
      1.90000000	      5.40474781	      2.13720981	      4.20836563	      0.59151219	      1.00687520	     -0.00094850	     18.29273319	     -4.15491060	     -2.91775295	     -7.57589586	     -2.76717842	     -0.76540496	    -21.72342540	      0.12438648	     -6.41167464	    -13.50260910	     16.90427398	     26.17560996
      1.91700000	      5.54803419	      1.76619643	      4.59881758	      0.59476098	      1.00748996	      0.00121270	     18.64005182	     -3.63484656	     -2.99749667	    -10.93573439	     -3.45020801	     -1.12015002	    -21.72930076	     -0.88485336	     -6.02954162	    -16.08093451	     15.99242146	     26.54262059
      1.93300000	      5.66409141	      1.43065016	      4.77350956	      0.59903519	      1.00860311	      0.00345108	     18.85227613	     -3.09767014	     -2.64987154	    -14.16750132	     -3.67439406	     -1.68055730	    -21.40546884	     -1.73714813	     -5.54845479	    -19.19402248	     14.54939578	     26.49574307
      1.95000000	      6.06080868	      0.96095898	      5.19466453	      0.60291262	      1.01040934	      0.00565427	     18.44900244	     -2.44084722	     -2.52695865	    -16.86113754	     -3.65409012	     -2.28632862	    -20.60358542	     -2.92984018	     -5.05563725	    -23.52283252	     12.68983183	     26.73119906
      1.96700000	      6.26935047	      0.92925342	      5.55270895	      0.60572586	      1.01199558	      0.00791339	     18.05887530	     -2.33704437	     -2.85048805	    -19.21476217	     -3.10441413	     -1.86331450	    -18.84582306	     -3.61534407	     -4.32887809	    -28.92752283	     10.01078489	     26.44507751
      1.98300000	      6.51253649	      0.65220420	      5.75488453	      0.60858892	      1.01372919	      0.01046885	     17.30930119	     -1.92671618	     -3.28215644	    -20.92557750	     -2.28642393	     -1.32580614	    -16.64101306	     -4.47869919	     -3.85405275	    -34.85077313	      6.32150994	     25.53326432
      2.00000000	      6.66230671	      0.57838787	      5.73987172	      0.61066423	      1.01547581	      0.01297589	     16.55574386	     -1.68820134	     -3.62924536	    -22.41077730	     -1.05676824	     -0.63637779	    -13.97367840	     -4.83307008	     -3.19118623	    -40.86874682	      1.71919922	     23.19845122
      2.01700000	      6.66322195	      0.22657157	      5.51879278	      0.61167603	      1.01711501	      0.01590822	     15.68059523	     -1.09272673	     -3.93522536	    -23.12136868	      0.15529540	      0.06411005	    -10.81709010	     -5.35436181	     -2.87219844	    -46.83786621	     -3.09396424	     20.21277351
      2.03300000	      6.63995807	     -0.14079026	      5.62342613	      0.61287451	      1.01941964	      0.01864859	     14.46187280	     -0.50900293	     -4.52899246	    -23.20889514	      1.41382617	      0.72867944	     -7.61645118	     -5.94287454	     -2.42019800	    -52.12639371	     -7.30968258	     17.05359908
      2.05000000	      6.67627138	     -0.38863910	      5.38121562	      0.61287557	      1.02222880	      0.02149771	     13.05401223	      0.05723349	     -4.66872491	    -22.84250112	      2.45439120	      1.17474129	     -4.54067629	     -6.21411431	     -2.24842745	    -56.80699765	     -9.78897041	     13.94321333
      2.06700000	      6.88228570	     -0.55854103	      5.31154187	      0.61271688	      1.02560946	      0.02430036	     11.35601756	      0.58261622	     -4.70886349	    -22.27463514	      3.38233724	      1.31412071	     -1.63576427	     -6.45538724	     -2.01491140	    -60.97876986	    -10.14106012	     11.57849712
      2.08300000	      6.91997382	     -0.42353087	      4.98767909	      0.61204655	      1.02915175	      0.02657367	      9.70267930	      0.68284505	     -4.69626167	    -21.40119499	      4.19377347	      1.93562085	      1.23379642	     -6.23365833	     -2.11576266	    -64.31969430	     -8.77185886	      9.74513087
      2.10000000	      7.03394164	     -0.23507156	      4.72410010	      0.61186892	      1.03303995	      0.02887092	      7.75411353	      0.69406163	     -4.89738050	    -20.17211996	      4.86172195	      2.83515624	      3.82238200	     -5.86815768	     -2.09921285	    -66.73295849	     -6.60234337	      8.37425498
      2.11700000	      7.29318364	     -0.03403563	      4.25644872	      0.61108589	      1.03708956	      0.03165186	      5.46395495	      0.77581784	     -4.74254663	    -18.39919846	      5.12345328	      3.40262644	      6.08098511	     -5.62594178	     -2.46335438	    -68.20914403	     -4.52187684	      7.79789869
      2.13300000	      7.41284573	      0.15877537	      3.82448037	      0.61008995	      1.04041701	      0.03412136	      3.39325291	      0.81758183	     -4.54320287	    -16.74046046	      5.38860385	      3.85183812	      8.33466407	     -5.21050791	     -2.60118411	    -68.83515666	     -2.84668727	      7.43446072
      2.15000000	      7.47033423	      0.29039198	      3.35273197	      0.60912347	      1.04320000	      0.03638083	      1.36826545	      0.91385320	     -4.14467030	    -14.99133214	      5.53446529	      4.02929871	     10.43384765	     -4.87563031	     -2.83429089	    -68.60760787	     -1.61500030	      7.50231227
      2.16700000	      7.45165980	      0.44471980	      2.73874279	      0.60728814	      1.04522041	      0.03865876	     -0.37831127	      0.89869798	     -3.81430000	    -13.50780126	      5.74931104	      4.57455919	     12.44807374	     -4.56788603	     -3.29460037	    -67.63722630	     -0.69640785	      7.77793317
      2.18300000	      7.62251620	      0.72871402	      2.30380805	      0.60586288	      1.04719000	      0.04022521	     -2.30360112	      0.70755294	     -3.63774463	    -12.17561356	      6.04017306	      5.02870322	     13.96870447	     -3.98581649	     -3.56220206	    -65.78244976	     -0.00020199	      7.77663755
      2.20000000	      7.44330427	      0.76598773	      1.81779840	      0.60352402	      1.04765715	      0.04188354	     -3.60084817	      0.75586116	     -3.32802824	    -11.18698604	      6.43865722	      5.31780635	     15.80827203	     -3.70822831	     -3.86349305	    -63.44423812	      0.61344929	      7.69344945
      2.21700000	      7.54464719	      0.95893821	      1.38299939	      0.60209318	      1.04841733	      0.04320926	     -5.41519579	      0.63792187	     -2.98706197	     -9.89471070	      6.75303406	      5.42955445	     16.88017677	     -3.29377064	     -4.23490546	    -60.09620040	      0.99883023	      7.33970715
